HIERARCHY
ROOT Hips
{
	OFFSET 0.000000 0.000000 0.000000 
	CHANNELS 6 Xposition Yposition Zposition Yrotation Zrotation Xrotation 
	JOINT Lumbar
	{
		OFFSET 0.000000 0.000000 0.000000 
		CHANNELS 3 Zrotation Xrotation Yrotation
		JOINT Neck
		{
			OFFSET 0.000000 0.445665 0.000000 
			CHANNELS 3 Zrotation Xrotation Yrotation
			End Site
			{
				OFFSET 0.000000 0.227535 0.000000 
			}
		}
		JOINT RightShoulder
		{
			OFFSET 0.019635 0.377685 0.194865 
			CHANNELS 3 Zrotation Xrotation Yrotation
			JOINT RightElbow
			{
				OFFSET 0.000000 -0.243375 0.000000 
				CHANNELS 2 Zrotation Yrotation
				JOINT RightWrist
				{
					OFFSET 0.000000 -0.264825 0.000000 
					CHANNELS 2 Zrotation Xrotation
					End Site
					{
						OFFSET 0.006600 -0.176220 0.000990 
					}
				}
			}
		}
		JOINT LeftShoulder
		{
			OFFSET 0.019635 0.377685 -0.194865 
			CHANNELS 3 Zrotation Xrotation Yrotation
			JOINT LeftElbow
			{
				OFFSET 0.000000 -0.243375 0.000000 
				CHANNELS 2 Zrotation Yrotation
				JOINT LeftWrist
				{
					OFFSET 0.000000 -0.264825 0.000000 
					CHANNELS 2 Zrotation Xrotation
					End Site
					{
						OFFSET 0.006600 -0.176220 -0.000990 
					}
				}
			}
		}
	}
	JOINT RightHip
	{
		OFFSET 0.052140 -0.069960 0.075570 
		CHANNELS 3 Zrotation Xrotation Yrotation
		JOINT RightKnee
		{
			OFFSET 0.000000 -0.402270 0.000000 
			CHANNELS 1 Zrotation
			JOINT RightAnkle
			{
				OFFSET 0.000000 -0.404085 0.000000 
				CHANNELS 3 Zrotation Xrotation Yrotation
				End Site
				{
					OFFSET 0.204105 -0.089430 0.008415 
				}
			}
		}
	}
	JOINT LeftHip
	{
		OFFSET 0.052140 -0.069960 -0.075570 
		CHANNELS 3 Zrotation Xrotation Yrotation
		JOINT LeftKnee
		{
			OFFSET 0.000000 -0.402270 0.000000 
			CHANNELS 1 Zrotation
			JOINT LeftAnkle
			{
				OFFSET 0.000000 -0.404085 0.000000 
				CHANNELS 3 Zrotation Xrotation Yrotation
				End Site
				{
					OFFSET 0.204105 -0.089430 -0.008415 
				}
			}
		}
	}
}
MOTION
Frames: 26
Frame Time: 0.02
-0 0.95578 0 190.64277 0 -3.35046 7.08249 3.91759 -0.92962 -12.72982 0.86658 -1.94008 -1.21652 -12.62512 -66.15916 5.32861 76.23248 -3.30766 0.73828 -2.72075 9.0626 80.1824 5.3286 -80.77763 -4.32236 3.29837 -4.15793 8.31091 4.05091 -5.29208 2.66022 -4.41025 -6.73683 -3.7301 0.92635 -10.09648 -6.36362 7.34814 6.31097 8.43239
-0.00035 0.95583 -0.00071 190.75741 0 -3.30579 6.98662 3.96434 -0.87025 -12.77903 0.72255 -1.89281 -1.83648 -12.34513 -70.94949 5.3286 76.20226 -3.45638 0.62097 -3.57059 9.01422 82.15552 5.3286 -80.87639 -4.38762 3.26977 -4.20209 8.38994 5.55789 -5.2612 2.54221 -4.41431 -8.35977 -3.68799 0.91219 -10.23856 -6.44727 7.32984 6.35458 8.515
-0.0007 0.95588 -0.00143 190.87257 0 -3.26117 6.89142 4.01098 -0.81129 -12.82861 0.57937 -1.84583 -2.45025 -12.06786 -75.70229 5.32859 76.17007 -3.60484 0.50474 -4.41006 8.9669 84.11299 5.3286 -80.97135 -4.45202 3.24098 -4.246 8.46821 7.04787 -5.23016 2.42535 -4.41847 -9.96612 -3.64555 0.89806 -10.38082 -6.53092 7.31158 6.39786 8.59703
-0.00103 0.95593 -0.00215 190.98988 0 -3.21647 6.79792 4.0575 -0.75293 -12.88006 0.43739 -1.79946 -3.05073 -11.79589 -80.35001 5.32859 76.12447 -3.75563 0.39107 -5.22417 8.92272 86.02751 5.32859 -81.05976 -4.51537 3.2115 -4.28924 8.54319 8.46367 -5.19866 2.31374 -4.42313 -11.50002 -3.60219 0.88399 -10.5241 -6.61473 7.29326 6.44021 8.67744
-0.00143 0.95598 -0.00286 191.0945 0 -3.17238 6.69536 4.10453 -0.69081 -12.9215 0.28809 -1.7497 -3.72821 -11.49241 -85.55264 5.32858 76.14368 -3.89639 0.2631 -6.18209 8.86112 88.17035 5.32859 -81.19204 -4.5864 3.18611 -4.3359 8.63441 10.24773 -5.17021 2.17649 -4.42524 -13.39168 -3.56466 0.86969 -10.66063 -6.69686 7.27523 6.48744 8.76628
-0.0017 0.95602 -0.00358 191.22674 0 -3.12693 6.6121 4.1505 -0.63713 -12.98414 0.15508 -1.70726 -4.23765 -11.25824 -89.57756 5.32857 76.03004 -4.05665 0.16599 -6.82845 8.83697 89.82754 5.32859 -81.22519 -4.63965 3.15178 -4.37536 8.69197 11.26781 -5.13492 2.09211 -4.43264 -14.54241 -3.5142 0.85584 -10.81221 -6.78304 7.25659 6.52432 8.8373
-0.00164 0.95604 -0.00434 191.43464 0 -3.07728 6.58146 4.19418 -0.6027 -13.10847 0.05938 -1.68414 -4.31665 -11.19638 -90.32612 5.32856 75.49495 -4.2906 0.15059 -6.65331 8.91549 90.13797 5.32858 -81.0299 -4.65641 3.09311 -4.39442 8.6478 9.97843 -5.0825 2.17004 -4.45624 -13.44577 -3.43049 0.8431 -11.00414 -6.87888 7.23579 6.53242 8.85876
-0.00145 0.95605 -0.00512 191.67092 0 -3.02628 6.5703 4.23675 -0.57761 -13.25358 -0.01865 -1.66869 -4.21909 -11.20813 -89.8867 5.32855 74.83382 -4.54097 0.167 -6.1554 9.03253 89.95448 5.32859 -80.72759 -4.6533 3.02494 -4.4062 8.57098 7.94683 -5.02277 2.29884 -4.48489 -11.63081 -3.33296 0.83074 -11.21211 -6.9795 7.21438 6.53013 8.86254
-0.00131 0.95605 -0.00589 191.89468 0 -2.97613 6.55081 4.27943 -0.55071 -13.38751 -0.0998 -1.65012 -4.18149 -11.19834 -90.01273 5.32854 74.26688 -4.77111 0.17114 -5.78068 9.13195 90.00731 5.32857 -80.44237 -4.65065 2.96123 -4.42178 8.51504 6.39095 -4.9652 2.39337 -4.51023 -10.28178 -3.24037 0.81834 -11.41327 -7.07867 7.19357 6.53266 8.87437
-0.00124 0.95607 -0.00665 192.11618 0 -2.92498 6.52961 4.32367 -0.51311 -13.52949 -0.20132 -1.62943 -4.23271 -11.13753 -90.04823 5.32853 73.54978 -5.05466 0.16604 -5.5087 9.2299 90.03055 5.32858 -80.2836 -4.68269 2.89832 -4.43573 8.43455 4.27653 -4.91263 2.53335 -4.53994 -8.36922 -3.15447 0.80566 -11.61075 -7.17355 7.17161 6.53462 8.88521
-0.00098 0.95607 -0.00745 192.34992 0 -2.87561 6.516 4.36451 -0.50056 -13.6587 -0.25662 -1.61568 -4.0529 -11.20141 -89.96797 5.32853 73.10854 -5.23143 0.18778 -4.94158 9.34248 89.97232 5.32862 -79.84448 -4.63961 2.82973 -4.45078 8.39625 3.11708 -4.8478 2.59276 -4.56164 -7.42827 -3.05009 0.79329 -11.82175 -7.28004 7.15166 6.53548 8.89509
-0.0003 0.95601 -0.00836 192.60404 0 -2.83141 6.52361 4.39562 -0.55015 -13.75577 -0.1858 -1.6131 -3.31226 -11.58323 -90.04562 5.32852 73.52112 -5.10427 0.27461 -3.67539 9.46594 90.02657 5.32848 -78.58516 -4.37809 2.76439 -4.47528 8.49301 5.05655 -4.75203 2.39952 -4.56085 -9.62162 -2.90853 0.78468 -12.04872 -7.40493 7.13938 6.5343 8.89645
0.00057 0.95593 -0.00932 192.87071 0 -2.78912 6.53717 4.42362 -0.62553 -13.8378 -0.06997 -1.61827 -2.33809 -12.0893 -90.01038 5.32858 74.20558 -4.86989 0.38698 -2.11562 9.607 89.97235 5.32874 -77.06105 -4.04471 2.69164 -4.50017 8.63158 7.93418 -4.64406 2.1264 -4.55161 -12.76992 -2.74666 0.77576 -12.29198 -7.54403 7.12877 6.53267 8.89939
0.00139 0.95586 -0.01027 193.13593 0 -2.74591 6.54484 4.45322 -0.69222 -13.92127 0.02387 -1.62399 -1.4496 -12.54431 -89.90752 5.32852 74.72366 -4.68811 0.48923 -0.66704 9.75258 89.82972 5.32858 -75.70534 -3.75451 2.61004 -4.52201 8.74383 10.19351 -4.54081 1.90195 -4.54571 -15.29537 -2.58753 0.76505 -12.53927 -7.6844 7.11609 6.53226 8.90826
0.00205 0.95578 -0.01118 193.38427 0 -2.70259 6.56702 4.48133 -0.74642 -14.028 0.12628 -1.61317 -0.64452 -12.98014 -90.27569 5.32855 75.41255 -4.49117 0.58878 0.69572 9.84478 90.26396 5.32807 -74.14234 -3.41883 2.5753 -4.55618 8.88504 13.22147 -4.44037 1.62857 -4.54228 -18.57735 -2.4563 0.76264 -12.73895 -7.79087 7.10893 6.52715 8.88831
0.0031 0.95573 -0.01217 193.67028 0 -2.66034 6.55968 4.51266 -0.83268 -14.08272 0.21944 -1.63805 0.3915 -13.48312 -89.63839 5.32875 75.81886 -4.29935 0.69653 2.30682 10.05421 89.46137 5.33006 -72.95042 -3.16153 2.44682 -4.56424 8.9773 14.90085 -4.33181 1.43557 -4.53141 -20.53952 -2.26109 0.74269 -13.04135 -7.97308 7.09069 6.53189 8.92914
0.00514 0.95577 -0.01333 194.05824 0 -2.61757 6.47309 4.54644 -1.00057 -13.99501 0.29241 -1.76409 1.97297 -14.15237 -86.36988 5.32817 75.31868 -4.15513 0.84696 4.49534 10.5616 85.41265 5.32648 -72.84207 -3.13545 2.01407 -4.5054 8.91552 12.45949 -4.19898 1.50017 -4.50411 -18.45695 -1.90429 0.67577 -13.6248 -8.34626 7.04149 6.56382 9.13661
0.00757 0.95585 -0.01457 194.48348 0 -2.57644 6.35581 4.58502 -1.19976 -13.8559 0.35165 -1.92506 3.78438 -14.8824 -82.07854 5.32909 74.53631 -4.01877 0.99979 6.9286 11.18943 80.10241 5.32903 -73.11817 -3.19203 1.49594 -4.41933 8.80483 8.66397 -4.05923 1.64517 -4.46941 -15.04824 -1.48175 0.59081 -14.31105 -8.79838 6.98115 6.60576 9.40557
0.00986 0.95592 -0.01578 194.89067 0 -2.53643 6.25004 4.62602 -1.3851 -13.74175 0.40603 -2.06687 5.51281 -15.57689 -78.18287 5.32877 73.92312 -3.87343 1.13401 9.27244 11.77694 75.27409 5.33525 -73.2224 -3.21183 1.04818 -4.34223 8.72235 5.60136 -3.92595 1.74254 -4.43643 -12.35915 -1.08305 0.51337 -14.94881 -9.22338 6.92581 6.64327 9.64677
0.01201 0.95597 -0.01695 195.30245 0 -2.48832 6.15474 4.64707 -1.5703 -13.62003 0.50774 -2.22222 7.15908 -16.30934 -74.56977 5.32631 73.1473 -3.7454 1.3427 11.5357 12.30731 70.81265 5.30887 -73.30442 -3.22301 0.46766 -4.27938 8.616 2.07319 -3.77857 1.88397 -4.40916 -9.20781 -0.71012 0.43938 -15.59324 -9.60994 6.8705 6.68024 9.8866
0.01454 0.95606 -0.01822 195.71402 0 -2.45781 6.03029 4.71136 -1.76221 -13.50243 0.50842 -2.35834 9.02749 -16.97534 -70.13277 5.33429 72.63869 -3.58683 1.39701 14.01976 12.98121 65.30757 5.35855 -73.52858 -3.2762 0.14249 -4.18054 8.54725 -0.8168 -3.65861 1.9538 -4.3695 -6.69371 -0.26694 0.35318 -16.2497 -10.09762 6.81284 6.72073 10.14468
0.01801 0.95629 -0.01978 196.1098 0 -2.47249 5.833 4.88958 -1.97074 -13.40609 0.22166 -2.4259 11.45584 -17.44387 -63.62465 5.32331 72.94513 -3.32344 1.01977 17.06181 14.05434 57.07228 5.56024 -74.04808 -3.39754 0.5517 -3.98753 8.59377 -1.63816 -3.62068 1.80653 -4.28726 -6.24279 0.34304 0.24448 -16.89885 -10.82317 6.74826 6.76838 10.4306
0.02185 0.95655 -0.02144 196.50495 0 -2.50543 5.60761 5.1119 -2.18373 -13.31653 -0.16401 -2.47398 14.09765 -17.84265 -56.3344 5.33212 73.52771 -3.03319 0.48772 20.31366 15.26117 47.86198 5.84932 -74.70243 -3.56499 1.21909 -3.75945 8.67973 -1.77257 -3.61008 1.58508 -4.19448 -6.47604 1.02299 0.1231 -17.55885 -11.65121 6.68239 6.81925 10.73378
0.02554 0.95678 -0.02306 196.90458 0 -2.53191 5.39462 5.31698 -2.3908 -13.22534 -0.49729 -2.53572 16.63924 -18.27212 -49.4303 5.36238 73.97675 -2.76777 0.02963 23.46375 16.38603 39.1993 6.13479 -75.29446 -3.72834 1.76309 -3.54847 8.74772 -2.20723 -3.58358 1.39738 -4.11357 -6.40768 1.6786 0.00275 -18.22449 -12.44748 6.61902 6.86869 11.03441
0.02917 0.95707 -0.0247 197.28863 0 -2.55047 5.18111 5.51071 -2.61546 -13.12503 -0.86374 -2.57913 19.20434 -18.70796 -42.35105 5.26222 74.44867 -2.44869 -0.4431 26.65341 17.60648 30.04371 6.26593 -75.89125 -3.81862 2.33059 -3.33193 8.8141 -2.73057 -3.57024 1.21098 -4.00357 -6.26289 2.30675 -0.09925 -18.85107 -13.18648 6.54673 6.91828 11.31632
0.033 0.95724 -0.0263 197.70347 0 -2.59012 4.96369 5.73807 -2.80407 -13.04746 -1.18276 -2.65468 21.76592 -19.11326 -35.47643 5.44081 74.94395 -2.23562 -0.92274 29.80252 18.65573 21.70917 6.74182 -76.52132 -4.07693 2.91045 -3.11864 8.89398 -2.89905 -3.53769 1.00482 -3.95041 -6.4462 3.00567 -0.24098 -19.55776 -14.06494 6.49342 6.96829 11.63869
